<svg xmlns="http://www.w3.org/2000/svg" width="296" height="179" fill="none" viewBox="0 0 296 179"><path fill="#fff" d="M283 163.5H269.5H257C253.5 163.5 251.5 160.5 249.5 158C247.5 155.5 231.5 127.5 229.5 123.5C227.5 119.5 228.5 116.5 230 115.5C231.5 114.5 234.5 115 236.5 116.5C238.5 118 244 128 248.5 128C252.1 128 253.667 126 254 125C254.333 115.667 255 96.2 255 93C255 89 256 74.5 256 72.5C256 70.5 257 67.5 261 67.5C264.2 67.5 265.333 70.8333 265.5 72.5L268 108C273.167 110.5 284.4 116.1 290 118.5C295.6 120.9 295.667 126.167 295 128.5C294.333 134.167 292.7 147.4 291.5 155C290.3 162.6 285.333 163.833 283 163.5Z"/><line x1="261" x2="261" y1="50" y2="57" stroke="#fff" stroke-linecap="round" stroke-width="2"/><line x1="242.378" x2="248.682" y1="60.682" y2="64.622" stroke="#fff" stroke-linecap="round" stroke-width="2"/><line x1="242.389" x2="249.64" y1="81.64" y2="77.612" stroke="#fff" stroke-linecap="round" stroke-width="2"/><line x1="272.378" x2="278.682" y1="77.682" y2="81.622" stroke="#fff" stroke-linecap="round" stroke-width="2"/><line x1="279.682" x2="273.378" y1="60.378" y2="64.318" stroke="#fff" stroke-linecap="round" stroke-width="2"/><path fill="#000" d="M1 125.5L74.5 178.5V166.5L1 113.5V125.5Z"/><path fill="#000" d="M74.5 178.5L147.5 125.5V113.5L74.5 166.5V178.5Z"/><path fill="#000" d="M74.5 62L1 113.5L74.5 166.5L147.5 113.5L74.5 62Z"/><path stroke="#fff" stroke-linejoin="round" d="M74.5 178.5L1 125.5V113.5M74.5 178.5L147.5 125.5V113.5M74.5 178.5V166.5M1 113.5L74.5 62L147.5 113.5M1 113.5L74.5 166.5M74.5 166.5L147.5 113.5"/><path fill="#000" d="M1 113.5L74.5 166.5V154.5L1 101.5V113.5Z"/><path fill="#000" d="M74.5 166.5L147.5 113.5V101.5L74.5 154.5V166.5Z"/><path fill="#000" d="M74.5 50L1 101.5L74.5 154.5L147.5 101.5L74.5 50Z"/><path stroke="#fff" stroke-linejoin="round" d="M74.5 166.5L1 113.5V101.5M74.5 166.5L147.5 113.5V101.5M74.5 166.5V154.5M1 101.5L74.5 50L147.5 101.5M1 101.5L74.5 154.5M74.5 154.5L147.5 101.5"/><path fill="#000" d="M1 101.5L74.5 154.5V142.5L1 89.5V101.5Z"/><path fill="#000" d="M74.5 154.5L147.5 101.5V89.5L74.5 142.5V154.5Z"/><path fill="#000" d="M74.5 38L1 89.5L74.5 142.5L147.5 89.5L74.5 38Z"/><path stroke="#fff" stroke-linejoin="round" d="M74.5 154.5L1 101.5V89.5M74.5 154.5L147.5 101.5V89.5M74.5 154.5V142.5M1 89.5L74.5 38L147.5 89.5M1 89.5L74.5 142.5M74.5 142.5L147.5 89.5"/><path fill="#000" d="M35 64.5L108.5 117.5V105.5L35 52.5V64.5Z"/><path fill="#000" d="M108.5 117.5L181.5 64.5V52.5L108.5 105.5V117.5Z"/><path fill="#000" d="M108.5 1L35 52.5L108.5 105.5L181.5 52.5L108.5 1Z"/><path stroke="#fff" stroke-linejoin="round" d="M108.5 117.5L35 64.5V52.5M108.5 117.5L181.5 64.5V52.5M108.5 117.5V105.5M35 52.5L108.5 1L181.5 52.5M35 52.5L108.5 105.5M108.5 105.5L181.5 52.5"/></svg>