<svg width="299" height="218" viewBox="0 0 299 218" fill="none" xmlns="http://www.w3.org/2000/svg">
<path d="M286.62 201.5H273.12H260.62C257.12 201.5 255.12 198.5 253.12 196C251.12 193.5 235.12 165.5 233.12 161.5C231.12 157.5 232.12 154.5 233.62 153.5C235.12 152.5 238.12 153 240.12 154.5C242.12 156 247.62 166 252.12 166C255.72 166 257.287 164 257.62 163C257.953 153.667 258.62 134.2 258.62 131C258.62 127 259.62 112.5 259.62 110.5C259.62 108.5 260.62 105.5 264.62 105.5C267.82 105.5 268.953 108.833 269.12 110.5L271.62 146C276.787 148.5 288.02 154.1 293.62 156.5C299.22 158.9 299.287 164.167 298.62 166.5C297.953 172.167 296.32 185.4 295.12 193C293.92 200.6 288.953 201.833 286.62 201.5Z" fill="white"/>
<line x1="264.62" y1="88" x2="264.62" y2="95" stroke="white" stroke-width="2" stroke-linecap="round"/>
<line x1="245.998" y1="98.682" x2="252.302" y2="102.622" stroke="white" stroke-width="2" stroke-linecap="round"/>
<line x1="246.009" y1="119.64" x2="253.26" y2="115.611" stroke="white" stroke-width="2" stroke-linecap="round"/>
<line x1="275.998" y1="115.682" x2="282.302" y2="119.622" stroke="white" stroke-width="2" stroke-linecap="round"/>
<line x1="283.302" y1="98.378" x2="276.998" y2="102.318" stroke="white" stroke-width="2" stroke-linecap="round"/>
<path d="M1 164.5L74.5 217.5V205.5L1 152.5V164.5Z" fill="black"/>
<path d="M74.5 217.5L147.5 164.5V152.5L74.5 205.5V217.5Z" fill="black"/>
<path d="M74.5 101L1 152.5L74.5 205.5L147.5 152.5L74.5 101Z" fill="black"/>
<path d="M74.5 217.5L1 164.5V152.5M74.5 217.5L147.5 164.5V152.5M74.5 217.5V205.5M1 152.5L74.5 101L147.5 152.5M1 152.5L74.5 205.5M74.5 205.5L147.5 152.5" stroke="white" stroke-linejoin="round"/>
<path d="M1 152.5L74.5 205.5V193.5L1 140.5V152.5Z" fill="black"/>
<path d="M74.5 205.5L147.5 152.5V140.5L74.5 193.5V205.5Z" fill="black"/>
<path d="M74.5 89L1 140.5L74.5 193.5L147.5 140.5L74.5 89Z" fill="black"/>
<path d="M74.5 205.5L1 152.5V140.5M74.5 205.5L147.5 152.5V140.5M74.5 205.5V193.5M1 140.5L74.5 89L147.5 140.5M1 140.5L74.5 193.5M74.5 193.5L147.5 140.5" stroke="white" stroke-linejoin="round"/>
<path d="M1 140.5L74.5 193.5V181.5L1 128.5V140.5Z" fill="black"/>
<path d="M74.5 193.5L147.5 140.5V128.5L74.5 181.5V193.5Z" fill="black"/>
<path d="M74.5 77L1 128.5L74.5 181.5L147.5 128.5L74.5 77Z" fill="black"/>
<path d="M74.5 193.5L1 140.5V128.5M74.5 193.5L147.5 140.5V128.5M74.5 193.5V181.5M1 128.5L74.5 77L147.5 128.5M1 128.5L74.5 181.5M74.5 181.5L147.5 128.5" stroke="white" stroke-linejoin="round"/>
<path d="M90 64.5L163.5 117.5V105.5L90 52.5V64.5Z" fill="black"/>
<path d="M163.5 117.5L236.5 64.5V52.5L163.5 105.5V117.5Z" fill="black"/>
<path d="M163.5 1L90 52.5L163.5 105.5L236.5 52.5L163.5 1Z" fill="black"/>
<path d="M163.5 117.5L90 64.5V52.5M163.5 117.5L236.5 64.5V52.5M163.5 117.5V105.5M90 52.5L163.5 1L236.5 52.5M90 52.5L163.5 105.5M163.5 105.5L236.5 52.5" stroke="white" stroke-linejoin="round"/>
</svg>
